<?xml version="1.0" encoding="utf-8"?>
<!-- Generator: Adobe Illustrator 16.0.0, SVG Export Plug-In . SVG Version: 6.00 Build 0)  -->
<!DOCTYPE svg PUBLIC "-//W3C//DTD SVG 1.1//EN" "http://www.w3.org/Graphics/SVG/1.1/DTD/svg11.dtd">
<svg version="1.1" id="Layer_1" xmlns="http://www.w3.org/2000/svg" xmlns:xlink="http://www.w3.org/1999/xlink" x="0px" y="0px"
	 width="612px" height="792px" viewBox="0 0 612 792" enable-background="new 0 0 612 792" xml:space="preserve">
<g>
	<g>
		<g>
			<path fill="#F9F4F4" d="M306,421.5c-35.163,0-63.75,28.6-63.75,63.749S270.837,549,306,549c35.162,0,63.75-28.601,63.75-63.75
				S341.162,421.5,306,421.5z M306,523.5c-21.092,0-38.25-17.157-38.25-38.25c0-21.092,17.158-38.25,38.25-38.25
				c21.093,0,38.25,17.158,38.25,38.25C344.25,506.343,327.093,523.5,306,523.5z"/>
			<path fill="#F9F4F4" d="M306,408.75c7.048,0,12.75-5.702,12.75-12.75v-12.75c0-7.047-5.702-12.75-12.75-12.75
				c-7.047,0-12.75,5.703-12.75,12.75V396C293.25,403.048,298.953,408.75,306,408.75z"/>
			<path fill="#F9F4F4" d="M306,561.75c-7.047,0-12.75,5.703-12.75,12.751v12.749c0,7.048,5.703,12.75,12.75,12.75
				c7.048,0,12.75-5.702,12.75-12.75V574.5C318.75,567.453,313.048,561.75,306,561.75z"/>
			<path fill="#F9F4F4" d="M408,472.5h-12.751c-7.048,0-12.75,5.703-12.75,12.75c0,7.048,5.702,12.751,12.75,12.751H408
				c7.047,0,12.75-5.703,12.75-12.751C420.75,478.203,415.047,472.5,408,472.5z"/>
			<path fill="#F9F4F4" d="M229.5,485.25c0-7.047-5.703-12.75-12.75-12.75h-12.75c-7.047,0-12.75,5.703-12.75,12.75
				c0,7.048,5.703,12.751,12.75,12.751h12.75C223.797,498,229.5,492.298,229.5,485.25z"/>
			<path fill="#F9F4F4" d="M369.103,434.885c3.263,0,6.524-1.245,9.016-3.735l9.015-9.015c4.981-4.981,4.981-13.05,0-18.029
				c-4.98-4.979-13.049-4.98-18.028,0l-9.016,9.015c-4.98,4.981-4.98,13.05,0,18.029
				C362.578,433.641,365.841,434.885,369.103,434.885z"/>
			<path fill="#F9F4F4" d="M233.883,539.351l-9.015,9.015c-4.981,4.98-4.981,13.049,0,18.029c2.49,2.489,5.753,3.735,9.015,3.735
				c3.262,0,6.524-1.246,9.015-3.735l9.015-9.016c4.981-4.98,4.981-13.049,0-18.028
				C246.931,534.369,238.863,534.369,233.883,539.351z"/>
			<path fill="#F9F4F4" d="M378.117,539.351c-4.981-4.981-13.05-4.981-18.029,0c-4.98,4.98-4.98,13.049,0,18.028l9.015,9.016
				c2.49,2.489,5.753,3.735,9.016,3.735c3.262,0,6.523-1.246,9.015-3.735c4.981-4.981,4.981-13.05,0-18.029L378.117,539.351z"/>
			<path fill="#F9F4F4" d="M233.883,431.149c2.49,2.49,5.753,3.735,9.015,3.735c3.262,0,6.524-1.245,9.015-3.735
				c4.981-4.98,4.981-13.049,0-18.029l-9.015-9.015c-4.981-4.98-13.049-4.98-18.029,0c-4.979,4.98-4.98,13.049,0,18.029
				L233.883,431.149z"/>
			<path fill="#F9F4F4" d="M459,403.62v-71.37c0-44.841-33.362-81.708-76.5-87.962V179.25c0-7.048-5.703-12.75-12.75-12.75h-12.751
				v-42.847c7.971-3.313,22.277-8.152,38.25-8.152c24.056,0,44.675,11.068,44.875,11.181c6.15,3.362,13.896,1.108,17.281-5.055
				c3.388-6.163,1.146-13.896-5.005-17.295C451.354,103.746,426.079,90,395.25,90c-24.927,0-46.244,9.002-54.037,12.75H242.25
				c-7.048,0-12.75,5.703-12.75,12.75c0,7.046,5.703,12.749,12.75,12.749h12.75v38.25h-12.75c-7.048,0-12.75,5.703-12.75,12.75
				v65.038c-43.138,6.254-76.5,43.12-76.5,87.962v71.37c-48.684,43.617-76.5,105.549-76.5,170.88V651c0,28.128,22.885,51,51,51h357
				c28.113,0,50.999-22.872,50.999-51v-76.5C535.5,509.169,507.684,447.237,459,403.62z M280.5,128.25h51v38.25h-51V128.25
				L280.5,128.25z M255,192h102v51H255V192L255,192z M510,651c0,14.057-11.431,25.499-25.499,25.499h-357
				c-14.07,0-25.5-11.442-25.5-25.499v-76.5c0-59.816,26.247-116.456,72.018-155.379c2.839-2.428,4.482-5.977,4.482-9.712v-77.16
				c0-35.149,28.588-63.75,63.75-63.75h127.5c35.162,0,63.749,28.6,63.749,63.75v77.16c0,3.735,1.644,7.284,4.482,9.712
				C483.754,458.044,510,514.684,510,574.5V651z"/>
		</g>
	</g>
</g>
</svg>
